<?xml version="1.0" standalone="no"?>
<!DOCTYPE svg PUBLIC "-//W3C//DTD SVG 20010904//EN"
 "http://www.w3.org/TR/2001/REC-SVG-20010904/DTD/svg10.dtd">
<svg version="1.0" xmlns="http://www.w3.org/2000/svg"
 width="300.000000pt" height="168.000000pt" viewBox="0 0 300.000000 168.000000"
 preserveAspectRatio="xMidYMid meet">
<metadata>
Created by potrace 1.10, written by Peter Selinger 2001-2011
</metadata>
<g transform="translate(0.000000,168.000000) scale(0.100000,-0.100000)"
fill="#000000" stroke="none">
<path d="M959 913 c-12 -26 -36 -81 -55 -120 l-33 -73 25 0 c25 0 36 17 84
140 l18 45 19 -45 c11 -25 28 -66 39 -92 15 -37 24 -48 42 -48 12 0 22 2 22 5
0 2 -22 55 -49 117 -59 136 -79 149 -112 71z"/>
<path d="M1144 949 c-3 -6 0 -18 9 -26 18 -18 37 -9 37 18 0 21 -34 27 -46 8z"/>
<path d="M1380 933 c0 -19 4 -21 35 -16 l35 6 0 -102 0 -101 26 0 25 0 -2 98
-1 97 36 -1 c30 -1 36 2 36 20 0 20 -5 21 -95 21 -91 0 -95 -1 -95 -22z"/>
<path d="M1879 908 c3 -52 3 -53 -16 -35 -59 53 -139 -18 -112 -100 17 -52 73
-70 111 -36 17 15 18 15 18 0 0 -10 8 -17 20 -17 19 0 20 7 20 120 0 118 0
120 -22 120 -21 0 -23 -4 -19 -52z m-14 -68 c35 -39 -9 -104 -55 -80 -29 16
-30 66 -2 88 22 17 36 15 57 -8z"/>
<path d="M1150 805 c0 -78 2 -85 20 -85 18 0 20 7 20 85 0 78 -2 85 -20 85
-18 0 -20 -7 -20 -85z"/>
<path d="M1574 866 c-85 -73 31 -195 120 -125 21 16 26 29 26 64 0 35 -5 48
-26 64 -36 28 -86 27 -120 -3z m87 -16 c19 -11 26 -54 11 -76 -11 -17 -35 -22
-59 -13 -42 16 -25 97 20 99 5 0 17 -5 28 -10z"/>
<path d="M1976 869 c-36 -28 -37 -89 -1 -124 53 -54 149 -15 149 60 0 73 -88
111 -148 64z m86 -21 c29 -22 27 -72 -3 -88 -47 -26 -92 46 -53 84 19 19 35
20 56 4z"/>
<path d="M1237 854 c-16 -16 -7 -44 14 -44 15 0 20 5 17 22 -3 22 -19 33 -31
22z"/>
<path d="M1314 845 c-7 -18 3 -35 21 -35 18 0 26 25 12 39 -15 15 -27 14 -33
-4z"/>
<path d="M973 794 c-7 -19 11 -39 26 -30 16 10 13 33 -4 40 -9 3 -18 -1 -22
-10z"/>
<path d="M1230 740 c0 -18 7 -20 65 -20 58 0 65 2 65 20 0 18 -7 20 -65 20
-58 0 -65 -2 -65 -20z"/>
</g>
</svg>
